<?xml version="1.0" encoding="utf-8" ?>
<svg baseProfile="full" height="57.5mm" version="1.1" viewBox="0,0,306.20000000000005,57.5" width="306.20000000000005mm" xmlns="http://www.w3.org/2000/svg" xmlns:ev="http://www.w3.org/2001/xml-events" xmlns:xlink="http://www.w3.org/1999/xlink"><defs /><rect fill="#ffffff" height="57.5" width="306.20000000000005" x="0" y="0" /><text fill="#FE9600" style="font-size:6px; font-family:Arial; font-weight:bold;" x="10" y="10">LY</text><text fill="#FE9600" style="font-size:3px; font-family:Arial;" x="10" y="14.4">2024: 184 hours</text><text fill="#FE9600" style="font-size:2.5px; font-family:Arial" x="10" y="18.3">Jan</text><rect fill="#ebedf0" height="4" rx="1" ry="1" width="4" x="10" y="19.7"><title>2024-01-01</title></rect><rect fill="#ffed49" height="4" rx="1" ry="1" width="4" x="10" y="25.1"><title>2024-01-02 7.05 mins</title></rect><rect fill="#ffec48" height="4" rx="1" ry="1" width="4" x="10" y="30.5"><title>2024-01-03 15.2 mins</title></rect><rect fill="#ffed49" height="4" rx="1" ry="1" width="4" x="10" y="35.9"><title>2024-01-04 8.67 mins</title></rect><rect fill="#ffec48" height="4" rx="1" ry="1" width="4" x="10" y="41.300000000000004"><title>2024-01-05 14.6 mins</title></rect><rect fill="#ebedf0" height="4" rx="1" ry="1" width="4" x="10" y="46.699999999999996"><title>2024-01-06</title></rect><rect fill="#ebedf0" height="4" rx="1" ry="1" width="4" x="10" y="52.1"><title>2024-01-07</title></rect><rect fill="#ebedf0" height="4" rx="1" ry="1" width="4" x="15.4" y="19.7"><title>2024-01-08</title></rect><rect fill="#ebedf0" height="4" rx="1" ry="1" width="4" x="15.4" y="25.1"><title>2024-01-09</title></rect><rect fill="#ebedf0" height="4" rx="1" ry="1" width="4" x="15.4" y="30.5"><title>2024-01-10</title></rect><rect fill="#ebedf0" height="4" rx="1" ry="1" width="4" x="15.4" y="35.9"><title>2024-01-11</title></rect><rect fill="#ebedf0" height="4" rx="1" ry="1" width="4" x="15.4" y="41.300000000000004"><title>2024-01-12</title></rect><rect fill="#ebedf0" height="4" rx="1" ry="1" width="4" x="15.4" y="46.699999999999996"><title>2024-01-13</title></rect><rect fill="#ebedf0" height="4" rx="1" ry="1" width="4" x="15.4" y="52.1"><title>2024-01-14</title></rect><rect fill="#ffbf01" height="4" rx="1" ry="1" width="4" x="20.8" y="19.7"><title>2024-01-15 62.03 mins</title></rect><rect fill="#FE9600" height="4" rx="1" ry="1" width="4" x="20.8" y="25.1"><title>2024-01-16 90.53 mins</title></rect><rect fill="#FE9600" height="4" rx="1" ry="1" width="4" x="20.8" y="30.5"><title>2024-01-17 105.12 mins</title></rect><rect fill="#FE9600" height="4" rx="1" ry="1" width="4" x="20.8" y="35.9"><title>2024-01-18 104.5 mins</title></rect><rect fill="#FE9600" height="4" rx="1" ry="1" width="4" x="20.8" y="41.300000000000004"><title>2024-01-19 107.05 mins</title></rect><rect fill="#ffec48" height="4" rx="1" ry="1" width="4" x="20.8" y="46.699999999999996"><title>2024-01-20 12.43 mins</title></rect><rect fill="#ffc001" height="4" rx="1" ry="1" width="4" x="20.8" y="52.1"><title>2024-01-21 54.95 mins</title></rect><rect fill="#ffc201" height="4" rx="1" ry="1" width="4" x="26.200000000000003" y="19.7"><title>2024-01-22 26.95 mins</title></rect><rect fill="#ffc001" height="4" rx="1" ry="1" width="4" x="26.200000000000003" y="25.1"><title>2024-01-23 47.72 mins</title></rect><rect fill="#ffed48" height="4" rx="1" ry="1" width="4" x="26.200000000000003" y="30.5"><title>2024-01-24 10.45 mins</title></rect><rect fill="#ffec48" height="4" rx="1" ry="1" width="4" x="26.200000000000003" y="35.9"><title>2024-01-25 12.65 mins</title></rect><rect fill="#ffed49" height="4" rx="1" ry="1" width="4" x="26.200000000000003" y="41.300000000000004"><title>2024-01-26 7.33 mins</title></rect><rect fill="#ffed49" height="4" rx="1" ry="1" width="4" x="26.200000000000003" y="46.699999999999996"><title>2024-01-27 5.33 mins</title></rect><rect fill="#ffee4a" height="4" rx="1" ry="1" width="4" x="26.200000000000003" y="52.1"><title>2024-01-28 0.75 mins</title></rect><rect fill="#ffee4a" height="4" rx="1" ry="1" width="4" x="31.6" y="19.7"><title>2024-01-29 1.5 mins</title></rect><rect fill="#ffee4a" height="4" rx="1" ry="1" width="4" x="31.6" y="25.1"><title>2024-01-30 1.78 mins</title></rect><rect fill="#ffee4a" height="4" rx="1" ry="1" width="4" x="31.6" y="30.5"><title>2024-01-31 1.33 mins</title></rect><rect fill="#ebedf0" height="4" rx="1" ry="1" width="4" x="31.6" y="35.9"><title>2024-02-01</title></rect><rect fill="#ffee4a" height="4" rx="1" ry="1" width="4" x="31.6" y="41.300000000000004"><title>2024-02-02 1.35 mins</title></rect><rect fill="#ebedf0" height="4" rx="1" ry="1" width="4" x="31.6" y="46.699999999999996"><title>2024-02-03</title></rect><rect fill="#ffeb46" height="4" rx="1" ry="1" width="4" x="31.6" y="52.1"><title>2024-02-04 25.53 mins</title></rect><text fill="#FE9600" style="font-size:2.5px; font-family:Arial" x="37.0" y="18.3">Feb</text><rect fill="#ffee4a" height="4" rx="1" ry="1" width="4" x="37.0" y="19.7"><title>2024-02-05 0.63 mins</title></rect><rect fill="#ffed49" height="4" rx="1" ry="1" width="4" x="37.0" y="25.1"><title>2024-02-06 6.22 mins</title></rect><rect fill="#ebedf0" height="4" rx="1" ry="1" width="4" x="37.0" y="30.5"><title>2024-02-07</title></rect><rect fill="#ebedf0" height="4" rx="1" ry="1" width="4" x="37.0" y="35.9"><title>2024-02-08</title></rect><rect fill="#ebedf0" height="4" rx="1" ry="1" width="4" x="37.0" y="41.300000000000004"><title>2024-02-09</title></rect><rect fill="#ebedf0" height="4" rx="1" ry="1" width="4" x="37.0" y="46.699999999999996"><title>2024-02-10</title></rect><rect fill="#ebedf0" height="4" rx="1" ry="1" width="4" x="37.0" y="52.1"><title>2024-02-11</title></rect><rect fill="#ebedf0" height="4" rx="1" ry="1" width="4" x="42.4" y="19.7"><title>2024-02-12</title></rect><rect fill="#ebedf0" height="4" rx="1" ry="1" width="4" x="42.4" y="25.1"><title>2024-02-13</title></rect><rect fill="#ebedf0" height="4" rx="1" ry="1" width="4" x="42.4" y="30.5"><title>2024-02-14</title></rect><rect fill="#ffee4a" height="4" rx="1" ry="1" width="4" x="42.4" y="35.9"><title>2024-02-15 0.28 mins</title></rect><rect fill="#ebedf0" height="4" rx="1" ry="1" width="4" x="42.4" y="41.300000000000004"><title>2024-02-16</title></rect><rect fill="#ffee4a" height="4" rx="1" ry="1" width="4" x="42.4" y="46.699999999999996"><title>2024-02-17 1.6 mins</title></rect><rect fill="#ffeb47" height="4" rx="1" ry="1" width="4" x="42.4" y="52.1"><title>2024-02-18 19.02 mins</title></rect><rect fill="#FE9600" height="4" rx="1" ry="1" width="4" x="47.8" y="19.7"><title>2024-02-19 70.12 mins</title></rect><rect fill="#ffed49" height="4" rx="1" ry="1" width="4" x="47.8" y="25.1"><title>2024-02-20 7.63 mins</title></rect><rect fill="#ffee4a" height="4" rx="1" ry="1" width="4" x="47.8" y="30.5"><title>2024-02-21 0.83 mins</title></rect><rect fill="#FE9600" height="4" rx="1" ry="1" width="4" x="47.8" y="35.9"><title>2024-02-22 152.47 mins</title></rect><rect fill="#FE9600" height="4" rx="1" ry="1" width="4" x="47.8" y="41.300000000000004"><title>2024-02-23 140.03 mins</title></rect><rect fill="#FE9600" height="4" rx="1" ry="1" width="4" x="47.8" y="46.699999999999996"><title>2024-02-24 67.92 mins</title></rect><rect fill="#ffee4a" height="4" rx="1" ry="1" width="4" x="47.8" y="52.1"><title>2024-02-25 0.73 mins</title></rect><rect fill="#FE9600" height="4" rx="1" ry="1" width="4" x="53.199999999999996" y="19.7"><title>2024-02-26 81.3 mins</title></rect><rect fill="#FE9600" height="4" rx="1" ry="1" width="4" x="53.199999999999996" y="25.1"><title>2024-02-27 94.3 mins</title></rect><rect fill="#ffc201" height="4" rx="1" ry="1" width="4" x="53.199999999999996" y="30.5"><title>2024-02-28 35.67 mins</title></rect><rect fill="#ffc101" height="4" rx="1" ry="1" width="4" x="53.199999999999996" y="35.9"><title>2024-02-29 40.17 mins</title></rect><rect fill="#ffed48" height="4" rx="1" ry="1" width="4" x="53.199999999999996" y="41.300000000000004"><title>2024-03-01 10.17 mins</title></rect><rect fill="#ffee4a" height="4" rx="1" ry="1" width="4" x="53.199999999999996" y="46.699999999999996"><title>2024-03-02 0.37 mins</title></rect><rect fill="#ffc101" height="4" rx="1" ry="1" width="4" x="53.199999999999996" y="52.1"><title>2024-03-03 44.03 mins</title></rect><text fill="#FE9600" style="font-size:2.5px; font-family:Arial" x="58.599999999999994" y="18.3">Mar</text><rect fill="#FE9600" height="4" rx="1" ry="1" width="4" x="58.599999999999994" y="19.7"><title>2024-03-04 102.58 mins</title></rect><rect fill="#FE9600" height="4" rx="1" ry="1" width="4" x="58.599999999999994" y="25.1"><title>2024-03-05 64.7 mins</title></rect><rect fill="#FE9600" height="4" rx="1" ry="1" width="4" x="58.599999999999994" y="30.5"><title>2024-03-06 156.67 mins</title></rect><rect fill="#FE9600" height="4" rx="1" ry="1" width="4" x="58.599999999999994" y="35.9"><title>2024-03-07 83.92 mins</title></rect><rect fill="#ffc201" height="4" rx="1" ry="1" width="4" x="58.599999999999994" y="41.300000000000004"><title>2024-03-08 29.38 mins</title></rect><rect fill="#ffee4a" height="4" rx="1" ry="1" width="4" x="58.599999999999994" y="46.699999999999996"><title>2024-03-09 2.08 mins</title></rect><rect fill="#ffee4a" height="4" rx="1" ry="1" width="4" x="58.599999999999994" y="52.1"><title>2024-03-10 1.0 mins</title></rect><rect fill="#ffc101" height="4" rx="1" ry="1" width="4" x="63.99999999999999" y="19.7"><title>2024-03-11 38.25 mins</title></rect><rect fill="#FE9600" height="4" rx="1" ry="1" width="4" x="63.99999999999999" y="25.1"><title>2024-03-12 100.4 mins</title></rect><rect fill="#FE9600" height="4" rx="1" ry="1" width="4" x="63.99999999999999" y="30.5"><title>2024-03-13 99.5 mins</title></rect><rect fill="#FE9600" height="4" rx="1" ry="1" width="4" x="63.99999999999999" y="35.9"><title>2024-03-14 77.57 mins</title></rect><rect fill="#FE9600" height="4" rx="1" ry="1" width="4" x="63.99999999999999" y="41.300000000000004"><title>2024-03-15 157.6 mins</title></rect><rect fill="#ffc201" height="4" rx="1" ry="1" width="4" x="63.99999999999999" y="46.699999999999996"><title>2024-03-16 30.9 mins</title></rect><rect fill="#ffed48" height="4" rx="1" ry="1" width="4" x="63.99999999999999" y="52.1"><title>2024-03-17 10.0 mins</title></rect><rect fill="#FE9600" height="4" rx="1" ry="1" width="4" x="69.39999999999999" y="19.7"><title>2024-03-18 142.72 mins</title></rect><rect fill="#ffc001" height="4" rx="1" ry="1" width="4" x="69.39999999999999" y="25.1"><title>2024-03-19 57.1 mins</title></rect><rect fill="#ffed49" height="4" rx="1" ry="1" width="4" x="69.39999999999999" y="30.5"><title>2024-03-20 7.35 mins</title></rect><rect fill="#ffc201" height="4" rx="1" ry="1" width="4" x="69.39999999999999" y="35.9"><title>2024-03-21 31.1 mins</title></rect><rect fill="#ffed48" height="4" rx="1" ry="1" width="4" x="69.39999999999999" y="41.300000000000004"><title>2024-03-22 9.77 mins</title></rect><rect fill="#ffee4a" height="4" rx="1" ry="1" width="4" x="69.39999999999999" y="46.699999999999996"><title>2024-03-23 2.93 mins</title></rect><rect fill="#ffee4a" height="4" rx="1" ry="1" width="4" x="69.39999999999999" y="52.1"><title>2024-03-24 2.22 mins</title></rect><rect fill="#ffee4a" height="4" rx="1" ry="1" width="4" x="74.8" y="19.7"><title>2024-03-25 0.82 mins</title></rect><rect fill="#ffed49" height="4" rx="1" ry="1" width="4" x="74.8" y="25.1"><title>2024-03-26 4.93 mins</title></rect><rect fill="#ffee4a" height="4" rx="1" ry="1" width="4" x="74.8" y="30.5"><title>2024-03-27 1.25 mins</title></rect><rect fill="#ffed49" height="4" rx="1" ry="1" width="4" x="74.8" y="35.9"><title>2024-03-28 4.02 mins</title></rect><rect fill="#ffee4a" height="4" rx="1" ry="1" width="4" x="74.8" y="41.300000000000004"><title>2024-03-29 2.98 mins</title></rect><rect fill="#ffee4a" height="4" rx="1" ry="1" width="4" x="74.8" y="46.699999999999996"><title>2024-03-30 1.77 mins</title></rect><rect fill="#ffee4a" height="4" rx="1" ry="1" width="4" x="74.8" y="52.1"><title>2024-03-31 0.9 mins</title></rect><text fill="#FE9600" style="font-size:2.5px; font-family:Arial" x="80.2" y="18.3">Apr</text><rect fill="#FE9600" height="4" rx="1" ry="1" width="4" x="80.2" y="19.7"><title>2024-04-01 91.15 mins</title></rect><rect fill="#FE9600" height="4" rx="1" ry="1" width="4" x="80.2" y="25.1"><title>2024-04-02 90.05 mins</title></rect><rect fill="#FE9600" height="4" rx="1" ry="1" width="4" x="80.2" y="30.5"><title>2024-04-03 144.05 mins</title></rect><rect fill="#ffc001" height="4" rx="1" ry="1" width="4" x="80.2" y="35.9"><title>2024-04-04 48.35 mins</title></rect><rect fill="#ffee4a" height="4" rx="1" ry="1" width="4" x="80.2" y="41.300000000000004"><title>2024-04-05 0.83 mins</title></rect><rect fill="#ffc201" height="4" rx="1" ry="1" width="4" x="80.2" y="46.699999999999996"><title>2024-04-06 31.07 mins</title></rect><rect fill="#FE9600" height="4" rx="1" ry="1" width="4" x="80.2" y="52.1"><title>2024-04-07 112.98 mins</title></rect><rect fill="#FE9600" height="4" rx="1" ry="1" width="4" x="85.60000000000001" y="19.7"><title>2024-04-08 80.22 mins</title></rect><rect fill="#FE9600" height="4" rx="1" ry="1" width="4" x="85.60000000000001" y="25.1"><title>2024-04-09 119.28 mins</title></rect><rect fill="#FE9600" height="4" rx="1" ry="1" width="4" x="85.60000000000001" y="30.5"><title>2024-04-10 137.77 mins</title></rect><rect fill="#FE9600" height="4" rx="1" ry="1" width="4" x="85.60000000000001" y="35.9"><title>2024-04-11 113.82 mins</title></rect><rect fill="#FE9600" height="4" rx="1" ry="1" width="4" x="85.60000000000001" y="41.300000000000004"><title>2024-04-12 122.55 mins</title></rect><rect fill="#FE9600" height="4" rx="1" ry="1" width="4" x="85.60000000000001" y="46.699999999999996"><title>2024-04-13 69.18 mins</title></rect><rect fill="#ffec47" height="4" rx="1" ry="1" width="4" x="85.60000000000001" y="52.1"><title>2024-04-14 18.0 mins</title></rect><rect fill="#FE9600" height="4" rx="1" ry="1" width="4" x="91.00000000000001" y="19.7"><title>2024-04-15 121.23 mins</title></rect><rect fill="#FE9600" height="4" rx="1" ry="1" width="4" x="91.00000000000001" y="25.1"><title>2024-04-16 191.95 mins</title></rect><rect fill="#FE9600" height="4" rx="1" ry="1" width="4" x="91.00000000000001" y="30.5"><title>2024-04-17 347.75 mins</title></rect><rect fill="#FE9600" height="4" rx="1" ry="1" width="4" x="91.00000000000001" y="35.9"><title>2024-04-18 237.23 mins</title></rect><rect fill="#FE9600" height="4" rx="1" ry="1" width="4" x="91.00000000000001" y="41.300000000000004"><title>2024-04-19 252.07 mins</title></rect><rect fill="#FE9600" height="4" rx="1" ry="1" width="4" x="91.00000000000001" y="46.699999999999996"><title>2024-04-20 242.62 mins</title></rect><rect fill="#FE9600" height="4" rx="1" ry="1" width="4" x="91.00000000000001" y="52.1"><title>2024-04-21 149.33 mins</title></rect><rect fill="#ffc001" height="4" rx="1" ry="1" width="4" x="96.40000000000002" y="19.7"><title>2024-04-22 50.08 mins</title></rect><rect fill="#ffec48" height="4" rx="1" ry="1" width="4" x="96.40000000000002" y="25.1"><title>2024-04-23 11.55 mins</title></rect><rect fill="#ffee4a" height="4" rx="1" ry="1" width="4" x="96.40000000000002" y="30.5"><title>2024-04-24 0.3 mins</title></rect><rect fill="#ffc201" height="4" rx="1" ry="1" width="4" x="96.40000000000002" y="35.9"><title>2024-04-25 32.18 mins</title></rect><rect fill="#ffeb47" height="4" rx="1" ry="1" width="4" x="96.40000000000002" y="41.300000000000004"><title>2024-04-26 21.7 mins</title></rect><rect fill="#ffc001" height="4" rx="1" ry="1" width="4" x="96.40000000000002" y="46.699999999999996"><title>2024-04-27 53.55 mins</title></rect><rect fill="#ffeb46" height="4" rx="1" ry="1" width="4" x="96.40000000000002" y="52.1"><title>2024-04-28 22.85 mins</title></rect><rect fill="#ffed49" height="4" rx="1" ry="1" width="4" x="101.80000000000003" y="19.7"><title>2024-04-29 3.95 mins</title></rect><rect fill="#ffee49" height="4" rx="1" ry="1" width="4" x="101.80000000000003" y="25.1"><title>2024-04-30 3.73 mins</title></rect><rect fill="#ffee4a" height="4" rx="1" ry="1" width="4" x="101.80000000000003" y="30.5"><title>2024-05-01 0.07 mins</title></rect><rect fill="#ffee4a" height="4" rx="1" ry="1" width="4" x="101.80000000000003" y="35.9"><title>2024-05-02 0.58 mins</title></rect><rect fill="#ffee4a" height="4" rx="1" ry="1" width="4" x="101.80000000000003" y="41.300000000000004"><title>2024-05-03 1.37 mins</title></rect><rect fill="#ffee4a" height="4" rx="1" ry="1" width="4" x="101.80000000000003" y="46.699999999999996"><title>2024-05-04 0.5 mins</title></rect><rect fill="#ffee4a" height="4" rx="1" ry="1" width="4" x="101.80000000000003" y="52.1"><title>2024-05-05 0.98 mins</title></rect><text fill="#FE9600" style="font-size:2.5px; font-family:Arial" x="107.20000000000003" y="18.3">May</text><rect fill="#ffed49" height="4" rx="1" ry="1" width="4" x="107.20000000000003" y="19.7"><title>2024-05-06 5.73 mins</title></rect><rect fill="#ffec47" height="4" rx="1" ry="1" width="4" x="107.20000000000003" y="25.1"><title>2024-05-07 16.15 mins</title></rect><rect fill="#ffec47" height="4" rx="1" ry="1" width="4" x="107.20000000000003" y="30.5"><title>2024-05-08 17.5 mins</title></rect><rect fill="#ffc101" height="4" rx="1" ry="1" width="4" x="107.20000000000003" y="35.9"><title>2024-05-09 38.65 mins</title></rect><rect fill="#ffec48" height="4" rx="1" ry="1" width="4" x="107.20000000000003" y="41.300000000000004"><title>2024-05-10 11.63 mins</title></rect><rect fill="#ffee4a" height="4" rx="1" ry="1" width="4" x="107.20000000000003" y="46.699999999999996"><title>2024-05-11 2.62 mins</title></rect><rect fill="#ffee4a" height="4" rx="1" ry="1" width="4" x="107.20000000000003" y="52.1"><title>2024-05-12 1.55 mins</title></rect><rect fill="#ebedf0" height="4" rx="1" ry="1" width="4" x="112.60000000000004" y="19.7"><title>2024-05-13</title></rect><rect fill="#ffc201" height="4" rx="1" ry="1" width="4" x="112.60000000000004" y="25.1"><title>2024-05-14 30.55 mins</title></rect><rect fill="#ffed48" height="4" rx="1" ry="1" width="4" x="112.60000000000004" y="30.5"><title>2024-05-15 11.0 mins</title></rect><rect fill="#ffc201" height="4" rx="1" ry="1" width="4" x="112.60000000000004" y="35.9"><title>2024-05-16 27.15 mins</title></rect><rect fill="#ffee4a" height="4" rx="1" ry="1" width="4" x="112.60000000000004" y="41.300000000000004"><title>2024-05-17 0.93 mins</title></rect><rect fill="#ffec47" height="4" rx="1" ry="1" width="4" x="112.60000000000004" y="46.699999999999996"><title>2024-05-18 18.25 mins</title></rect><rect fill="#FE9600" height="4" rx="1" ry="1" width="4" x="112.60000000000004" y="52.1"><title>2024-05-19 196.3 mins</title></rect><rect fill="#ffc201" height="4" rx="1" ry="1" width="4" x="118.00000000000004" y="19.7"><title>2024-05-20 35.8 mins</title></rect><rect fill="#ffed48" height="4" rx="1" ry="1" width="4" x="118.00000000000004" y="25.1"><title>2024-05-21 9.95 mins</title></rect><rect fill="#ffee4a" height="4" rx="1" ry="1" width="4" x="118.00000000000004" y="30.5"><title>2024-05-22 1.52 mins</title></rect><rect fill="#ffed48" height="4" rx="1" ry="1" width="4" x="118.00000000000004" y="35.9"><title>2024-05-23 11.0 mins</title></rect><rect fill="#ffc001" height="4" rx="1" ry="1" width="4" x="118.00000000000004" y="41.300000000000004"><title>2024-05-24 48.32 mins</title></rect><rect fill="#ffeb46" height="4" rx="1" ry="1" width="4" x="118.00000000000004" y="46.699999999999996"><title>2024-05-25 24.1 mins</title></rect><rect fill="#ffee4a" height="4" rx="1" ry="1" width="4" x="118.00000000000004" y="52.1"><title>2024-05-26 0.63 mins</title></rect><rect fill="#ffc001" height="4" rx="1" ry="1" width="4" x="123.40000000000005" y="19.7"><title>2024-05-27 51.32 mins</title></rect><rect fill="#ffbf01" height="4" rx="1" ry="1" width="4" x="123.40000000000005" y="25.1"><title>2024-05-28 58.97 mins</title></rect><rect fill="#FE9600" height="4" rx="1" ry="1" width="4" x="123.40000000000005" y="30.5"><title>2024-05-29 128.3 mins</title></rect><rect fill="#ffc001" height="4" rx="1" ry="1" width="4" x="123.40000000000005" y="35.9"><title>2024-05-30 47.97 mins</title></rect><rect fill="#ffc101" height="4" rx="1" ry="1" width="4" x="123.40000000000005" y="41.300000000000004"><title>2024-05-31 44.28 mins</title></rect><rect fill="#FE9600" height="4" rx="1" ry="1" width="4" x="123.40000000000005" y="46.699999999999996"><title>2024-06-01 70.27 mins</title></rect><rect fill="#ffee4a" height="4" rx="1" ry="1" width="4" x="123.40000000000005" y="52.1"><title>2024-06-02 2.78 mins</title></rect><text fill="#FE9600" style="font-size:2.5px; font-family:Arial" x="128.80000000000004" y="18.3">Jun</text><rect fill="#ffc201" height="4" rx="1" ry="1" width="4" x="128.80000000000004" y="19.7"><title>2024-06-03 35.98 mins</title></rect><rect fill="#FE9600" height="4" rx="1" ry="1" width="4" x="128.80000000000004" y="25.1"><title>2024-06-04 77.0 mins</title></rect><rect fill="#FE9600" height="4" rx="1" ry="1" width="4" x="128.80000000000004" y="30.5"><title>2024-06-05 78.6 mins</title></rect><rect fill="#ffc201" height="4" rx="1" ry="1" width="4" x="128.80000000000004" y="35.9"><title>2024-06-06 27.35 mins</title></rect><rect fill="#ffeb47" height="4" rx="1" ry="1" width="4" x="128.80000000000004" y="41.300000000000004"><title>2024-06-07 19.82 mins</title></rect><rect fill="#ffc001" height="4" rx="1" ry="1" width="4" x="128.80000000000004" y="46.699999999999996"><title>2024-06-08 53.78 mins</title></rect><rect fill="#ffed49" height="4" rx="1" ry="1" width="4" x="128.80000000000004" y="52.1"><title>2024-06-09 9.57 mins</title></rect><rect fill="#ffeb47" height="4" rx="1" ry="1" width="4" x="134.20000000000005" y="19.7"><title>2024-06-10 18.88 mins</title></rect><rect fill="#ffc201" height="4" rx="1" ry="1" width="4" x="134.20000000000005" y="25.1"><title>2024-06-11 31.0 mins</title></rect><rect fill="#ffc101" height="4" rx="1" ry="1" width="4" x="134.20000000000005" y="30.5"><title>2024-06-12 41.62 mins</title></rect><rect fill="#ffee4a" height="4" rx="1" ry="1" width="4" x="134.20000000000005" y="35.9"><title>2024-06-13 1.72 mins</title></rect><rect fill="#ffee4a" height="4" rx="1" ry="1" width="4" x="134.20000000000005" y="41.300000000000004"><title>2024-06-14 0.95 mins</title></rect><rect fill="#ebedf0" height="4" rx="1" ry="1" width="4" x="134.20000000000005" y="46.699999999999996"><title>2024-06-15</title></rect><rect fill="#ffee4a" height="4" rx="1" ry="1" width="4" x="134.20000000000005" y="52.1"><title>2024-06-16 1.63 mins</title></rect><rect fill="#ffc201" height="4" rx="1" ry="1" width="4" x="139.60000000000005" y="19.7"><title>2024-06-17 27.42 mins</title></rect><rect fill="#ffbf01" height="4" rx="1" ry="1" width="4" x="139.60000000000005" y="25.1"><title>2024-06-18 59.48 mins</title></rect><rect fill="#ffc201" height="4" rx="1" ry="1" width="4" x="139.60000000000005" y="30.5"><title>2024-06-19 29.95 mins</title></rect><rect fill="#ffec48" height="4" rx="1" ry="1" width="4" x="139.60000000000005" y="35.9"><title>2024-06-20 14.0 mins</title></rect><rect fill="#ffed49" height="4" rx="1" ry="1" width="4" x="139.60000000000005" y="41.300000000000004"><title>2024-06-21 8.85 mins</title></rect><rect fill="#ebedf0" height="4" rx="1" ry="1" width="4" x="139.60000000000005" y="46.699999999999996"><title>2024-06-22</title></rect><rect fill="#ebedf0" height="4" rx="1" ry="1" width="4" x="139.60000000000005" y="52.1"><title>2024-06-23</title></rect><rect fill="#ffed49" height="4" rx="1" ry="1" width="4" x="145.00000000000006" y="19.7"><title>2024-06-24 4.95 mins</title></rect><rect fill="#ffeb47" height="4" rx="1" ry="1" width="4" x="145.00000000000006" y="25.1"><title>2024-06-25 20.5 mins</title></rect><rect fill="#ffec48" height="4" rx="1" ry="1" width="4" x="145.00000000000006" y="30.5"><title>2024-06-26 12.0 mins</title></rect><rect fill="#ffed49" height="4" rx="1" ry="1" width="4" x="145.00000000000006" y="35.9"><title>2024-06-27 4.12 mins</title></rect><rect fill="#ffee4a" height="4" rx="1" ry="1" width="4" x="145.00000000000006" y="41.300000000000004"><title>2024-06-28 0.12 mins</title></rect><rect fill="#ebedf0" height="4" rx="1" ry="1" width="4" x="145.00000000000006" y="46.699999999999996"><title>2024-06-29</title></rect><rect fill="#ebedf0" height="4" rx="1" ry="1" width="4" x="145.00000000000006" y="52.1"><title>2024-06-30</title></rect><text fill="#FE9600" style="font-size:2.5px; font-family:Arial" x="150.40000000000006" y="18.3">Jul</text><rect fill="#FE9600" height="4" rx="1" ry="1" width="4" x="150.40000000000006" y="19.7"><title>2024-07-01 73.62 mins</title></rect><rect fill="#ffc101" height="4" rx="1" ry="1" width="4" x="150.40000000000006" y="25.1"><title>2024-07-02 39.85 mins</title></rect><rect fill="#ffed48" height="4" rx="1" ry="1" width="4" x="150.40000000000006" y="30.5"><title>2024-07-03 10.17 mins</title></rect><rect fill="#ebedf0" height="4" rx="1" ry="1" width="4" x="150.40000000000006" y="35.9"><title>2024-07-04</title></rect><rect fill="#ffee4a" height="4" rx="1" ry="1" width="4" x="150.40000000000006" y="41.300000000000004"><title>2024-07-05 0.03 mins</title></rect><rect fill="#ebedf0" height="4" rx="1" ry="1" width="4" x="150.40000000000006" y="46.699999999999996"><title>2024-07-06</title></rect><rect fill="#ffee49" height="4" rx="1" ry="1" width="4" x="150.40000000000006" y="52.1"><title>2024-07-07 3.28 mins</title></rect><rect fill="#ffc201" height="4" rx="1" ry="1" width="4" x="155.80000000000007" y="19.7"><title>2024-07-08 26.38 mins</title></rect><rect fill="#ebedf0" height="4" rx="1" ry="1" width="4" x="155.80000000000007" y="25.1"><title>2024-07-09</title></rect><rect fill="#ebedf0" height="4" rx="1" ry="1" width="4" x="155.80000000000007" y="30.5"><title>2024-07-10</title></rect><rect fill="#ebedf0" height="4" rx="1" ry="1" width="4" x="155.80000000000007" y="35.9"><title>2024-07-11</title></rect><rect fill="#ffed49" height="4" rx="1" ry="1" width="4" x="155.80000000000007" y="41.300000000000004"><title>2024-07-12 5.5 mins</title></rect><rect fill="#ebedf0" height="4" rx="1" ry="1" width="4" x="155.80000000000007" y="46.699999999999996"><title>2024-07-13</title></rect><rect fill="#ebedf0" height="4" rx="1" ry="1" width="4" x="155.80000000000007" y="52.1"><title>2024-07-14</title></rect><rect fill="#ffc201" height="4" rx="1" ry="1" width="4" x="161.20000000000007" y="19.7"><title>2024-07-15 34.77 mins</title></rect><rect fill="#ebedf0" height="4" rx="1" ry="1" width="4" x="161.20000000000007" y="25.1"><title>2024-07-16</title></rect><rect fill="#ebedf0" height="4" rx="1" ry="1" width="4" x="161.20000000000007" y="30.5"><title>2024-07-17</title></rect><rect fill="#ebedf0" height="4" rx="1" ry="1" width="4" x="161.20000000000007" y="35.9"><title>2024-07-18</title></rect><rect fill="#ebedf0" height="4" rx="1" ry="1" width="4" x="161.20000000000007" y="41.300000000000004"><title>2024-07-19</title></rect><rect fill="#ebedf0" height="4" rx="1" ry="1" width="4" x="161.20000000000007" y="46.699999999999996"><title>2024-07-20</title></rect><rect fill="#ebedf0" height="4" rx="1" ry="1" width="4" x="161.20000000000007" y="52.1"><title>2024-07-21</title></rect><rect fill="#ebedf0" height="4" rx="1" ry="1" width="4" x="166.60000000000008" y="19.7"><title>2024-07-22</title></rect><rect fill="#ffee4a" height="4" rx="1" ry="1" width="4" x="166.60000000000008" y="25.1"><title>2024-07-23 0.8 mins</title></rect><rect fill="#ebedf0" height="4" rx="1" ry="1" width="4" x="166.60000000000008" y="30.5"><title>2024-07-24</title></rect><rect fill="#ebedf0" height="4" rx="1" ry="1" width="4" x="166.60000000000008" y="35.9"><title>2024-07-25</title></rect><rect fill="#ebedf0" height="4" rx="1" ry="1" width="4" x="166.60000000000008" y="41.300000000000004"><title>2024-07-26</title></rect><rect fill="#ebedf0" height="4" rx="1" ry="1" width="4" x="166.60000000000008" y="46.699999999999996"><title>2024-07-27</title></rect><rect fill="#ebedf0" height="4" rx="1" ry="1" width="4" x="166.60000000000008" y="52.1"><title>2024-07-28</title></rect><rect fill="#ffeb47" height="4" rx="1" ry="1" width="4" x="172.00000000000009" y="19.7"><title>2024-07-29 18.97 mins</title></rect><rect fill="#ffec48" height="4" rx="1" ry="1" width="4" x="172.00000000000009" y="25.1"><title>2024-07-30 15.93 mins</title></rect><rect fill="#FE9600" height="4" rx="1" ry="1" width="4" x="172.00000000000009" y="30.5"><title>2024-07-31 119.67 mins</title></rect><rect fill="#ffc101" height="4" rx="1" ry="1" width="4" x="172.00000000000009" y="35.9"><title>2024-08-01 41.0 mins</title></rect><rect fill="#FE9600" height="4" rx="1" ry="1" width="4" x="172.00000000000009" y="41.300000000000004"><title>2024-08-02 98.32 mins</title></rect><rect fill="#ebedf0" height="4" rx="1" ry="1" width="4" x="172.00000000000009" y="46.699999999999996"><title>2024-08-03</title></rect><rect fill="#ffed49" height="4" rx="1" ry="1" width="4" x="172.00000000000009" y="52.1"><title>2024-08-04 7.02 mins</title></rect><text fill="#FE9600" style="font-size:2.5px; font-family:Arial" x="177.4000000000001" y="18.3">Aug</text><rect fill="#ffc001" height="4" rx="1" ry="1" width="4" x="177.4000000000001" y="19.7"><title>2024-08-05 50.87 mins</title></rect><rect fill="#ffc201" height="4" rx="1" ry="1" width="4" x="177.4000000000001" y="25.1"><title>2024-08-06 29.5 mins</title></rect><rect fill="#ffc101" height="4" rx="1" ry="1" width="4" x="177.4000000000001" y="30.5"><title>2024-08-07 43.53 mins</title></rect><rect fill="#ffc201" height="4" rx="1" ry="1" width="4" x="177.4000000000001" y="35.9"><title>2024-08-08 33.6 mins</title></rect><rect fill="#ffc201" height="4" rx="1" ry="1" width="4" x="177.4000000000001" y="41.300000000000004"><title>2024-08-09 31.38 mins</title></rect><rect fill="#ffee4a" height="4" rx="1" ry="1" width="4" x="177.4000000000001" y="46.699999999999996"><title>2024-08-10 1.63 mins</title></rect><rect fill="#ffec48" height="4" rx="1" ry="1" width="4" x="177.4000000000001" y="52.1"><title>2024-08-11 15.0 mins</title></rect><rect fill="#ffc001" height="4" rx="1" ry="1" width="4" x="182.8000000000001" y="19.7"><title>2024-08-12 53.38 mins</title></rect><rect fill="#ffed49" height="4" rx="1" ry="1" width="4" x="182.8000000000001" y="25.1"><title>2024-08-13 4.0 mins</title></rect><rect fill="#ffee4a" height="4" rx="1" ry="1" width="4" x="182.8000000000001" y="30.5"><title>2024-08-14 1.43 mins</title></rect><rect fill="#ffc201" height="4" rx="1" ry="1" width="4" x="182.8000000000001" y="35.9"><title>2024-08-15 32.47 mins</title></rect><rect fill="#ffc001" height="4" rx="1" ry="1" width="4" x="182.8000000000001" y="41.300000000000004"><title>2024-08-16 47.92 mins</title></rect><rect fill="#ffeb47" height="4" rx="1" ry="1" width="4" x="182.8000000000001" y="46.699999999999996"><title>2024-08-17 21.13 mins</title></rect><rect fill="#ffeb46" height="4" rx="1" ry="1" width="4" x="182.8000000000001" y="52.1"><title>2024-08-18 25.58 mins</title></rect><rect fill="#ffeb47" height="4" rx="1" ry="1" width="4" x="188.2000000000001" y="19.7"><title>2024-08-19 19.68 mins</title></rect><rect fill="#ffeb47" height="4" rx="1" ry="1" width="4" x="188.2000000000001" y="25.1"><title>2024-08-20 20.08 mins</title></rect><rect fill="#ffc201" height="4" rx="1" ry="1" width="4" x="188.2000000000001" y="30.5"><title>2024-08-21 30.78 mins</title></rect><rect fill="#ffbf01" height="4" rx="1" ry="1" width="4" x="188.2000000000001" y="35.9"><title>2024-08-22 63.47 mins</title></rect><rect fill="#ffeb46" height="4" rx="1" ry="1" width="4" x="188.2000000000001" y="41.300000000000004"><title>2024-08-23 24.48 mins</title></rect><rect fill="#ffec47" height="4" rx="1" ry="1" width="4" x="188.2000000000001" y="46.699999999999996"><title>2024-08-24 17.53 mins</title></rect><rect fill="#ffed49" height="4" rx="1" ry="1" width="4" x="188.2000000000001" y="52.1"><title>2024-08-25 5.55 mins</title></rect><rect fill="#ffc101" height="4" rx="1" ry="1" width="4" x="193.6000000000001" y="19.7"><title>2024-08-26 39.87 mins</title></rect><rect fill="#ffeb47" height="4" rx="1" ry="1" width="4" x="193.6000000000001" y="25.1"><title>2024-08-27 21.5 mins</title></rect><rect fill="#ffeb46" height="4" rx="1" ry="1" width="4" x="193.6000000000001" y="30.5"><title>2024-08-28 24.12 mins</title></rect><rect fill="#ffee4a" height="4" rx="1" ry="1" width="4" x="193.6000000000001" y="35.9"><title>2024-08-29 2.4 mins</title></rect><rect fill="#ebedf0" height="4" rx="1" ry="1" width="4" x="193.6000000000001" y="41.300000000000004"><title>2024-08-30</title></rect><rect fill="#ffee4a" height="4" rx="1" ry="1" width="4" x="193.6000000000001" y="46.699999999999996"><title>2024-08-31 0.02 mins</title></rect><rect fill="#ffee4a" height="4" rx="1" ry="1" width="4" x="193.6000000000001" y="52.1"><title>2024-09-01 0.33 mins</title></rect><text fill="#FE9600" style="font-size:2.5px; font-family:Arial" x="199.0000000000001" y="18.3">Sep</text><rect fill="#ffec47" height="4" rx="1" ry="1" width="4" x="199.0000000000001" y="19.7"><title>2024-09-02 17.5 mins</title></rect><rect fill="#ffea46" height="4" rx="1" ry="1" width="4" x="199.0000000000001" y="25.1"><title>2024-09-03 25.92 mins</title></rect><rect fill="#ffec48" height="4" rx="1" ry="1" width="4" x="199.0000000000001" y="30.5"><title>2024-09-04 14.78 mins</title></rect><rect fill="#ffc201" height="4" rx="1" ry="1" width="4" x="199.0000000000001" y="35.9"><title>2024-09-05 30.03 mins</title></rect><rect fill="#ffc001" height="4" rx="1" ry="1" width="4" x="199.0000000000001" y="41.300000000000004"><title>2024-09-06 50.28 mins</title></rect><rect fill="#FE9600" height="4" rx="1" ry="1" width="4" x="199.0000000000001" y="46.699999999999996"><title>2024-09-07 67.6 mins</title></rect><rect fill="#ffed49" height="4" rx="1" ry="1" width="4" x="199.0000000000001" y="52.1"><title>2024-09-08 5.38 mins</title></rect><rect fill="#ffc001" height="4" rx="1" ry="1" width="4" x="204.40000000000012" y="19.7"><title>2024-09-09 49.62 mins</title></rect><rect fill="#ffc101" height="4" rx="1" ry="1" width="4" x="204.40000000000012" y="25.1"><title>2024-09-10 41.58 mins</title></rect><rect fill="#ffee4a" height="4" rx="1" ry="1" width="4" x="204.40000000000012" y="30.5"><title>2024-09-11 0.62 mins</title></rect><rect fill="#ffeb47" height="4" rx="1" ry="1" width="4" x="204.40000000000012" y="35.9"><title>2024-09-12 19.83 mins</title></rect><rect fill="#ffee4a" height="4" rx="1" ry="1" width="4" x="204.40000000000012" y="41.300000000000004"><title>2024-09-13 1.42 mins</title></rect><rect fill="#ffee4a" height="4" rx="1" ry="1" width="4" x="204.40000000000012" y="46.699999999999996"><title>2024-09-14 0.5 mins</title></rect><rect fill="#ebedf0" height="4" rx="1" ry="1" width="4" x="204.40000000000012" y="52.1"><title>2024-09-15</title></rect><rect fill="#ebedf0" height="4" rx="1" ry="1" width="4" x="209.80000000000013" y="19.7"><title>2024-09-16</title></rect><rect fill="#ffee4a" height="4" rx="1" ry="1" width="4" x="209.80000000000013" y="25.1"><title>2024-09-17 0.27 mins</title></rect><rect fill="#ffec48" height="4" rx="1" ry="1" width="4" x="209.80000000000013" y="30.5"><title>2024-09-18 13.43 mins</title></rect><rect fill="#ffed49" height="4" rx="1" ry="1" width="4" x="209.80000000000013" y="35.9"><title>2024-09-19 5.08 mins</title></rect><rect fill="#ebedf0" height="4" rx="1" ry="1" width="4" x="209.80000000000013" y="41.300000000000004"><title>2024-09-20</title></rect><rect fill="#ffc201" height="4" rx="1" ry="1" width="4" x="209.80000000000013" y="46.699999999999996"><title>2024-09-21 26.52 mins</title></rect><rect fill="#FE9600" height="4" rx="1" ry="1" width="4" x="209.80000000000013" y="52.1"><title>2024-09-22 101.53 mins</title></rect><rect fill="#ffed48" height="4" rx="1" ry="1" width="4" x="215.20000000000013" y="19.7"><title>2024-09-23 10.67 mins</title></rect><rect fill="#ffeb47" height="4" rx="1" ry="1" width="4" x="215.20000000000013" y="25.1"><title>2024-09-24 18.93 mins</title></rect><rect fill="#ffc101" height="4" rx="1" ry="1" width="4" x="215.20000000000013" y="30.5"><title>2024-09-25 45.8 mins</title></rect><rect fill="#FE9600" height="4" rx="1" ry="1" width="4" x="215.20000000000013" y="35.9"><title>2024-09-26 112.8 mins</title></rect><rect fill="#ffc201" height="4" rx="1" ry="1" width="4" x="215.20000000000013" y="41.300000000000004"><title>2024-09-27 28.7 mins</title></rect><rect fill="#ffed48" height="4" rx="1" ry="1" width="4" x="215.20000000000013" y="46.699999999999996"><title>2024-09-28 10.5 mins</title></rect><rect fill="#ffed49" height="4" rx="1" ry="1" width="4" x="215.20000000000013" y="52.1"><title>2024-09-29 8.98 mins</title></rect><rect fill="#ffee4a" height="4" rx="1" ry="1" width="4" x="220.60000000000014" y="19.7"><title>2024-09-30 0.37 mins</title></rect><rect fill="#FE9600" height="4" rx="1" ry="1" width="4" x="220.60000000000014" y="25.1"><title>2024-10-01 136.7 mins</title></rect><rect fill="#FE9600" height="4" rx="1" ry="1" width="4" x="220.60000000000014" y="30.5"><title>2024-10-02 82.62 mins</title></rect><rect fill="#FE9600" height="4" rx="1" ry="1" width="4" x="220.60000000000014" y="35.9"><title>2024-10-03 208.73 mins</title></rect><rect fill="#ffc001" height="4" rx="1" ry="1" width="4" x="220.60000000000014" y="41.300000000000004"><title>2024-10-04 47.88 mins</title></rect><rect fill="#ffc201" height="4" rx="1" ry="1" width="4" x="220.60000000000014" y="46.699999999999996"><title>2024-10-05 28.95 mins</title></rect><rect fill="#FE9600" height="4" rx="1" ry="1" width="4" x="220.60000000000014" y="52.1"><title>2024-10-06 121.88 mins</title></rect><text fill="#FE9600" style="font-size:2.5px; font-family:Arial" x="226.00000000000014" y="18.3">Oct</text><rect fill="#ffed49" height="4" rx="1" ry="1" width="4" x="226.00000000000014" y="19.7"><title>2024-10-07 5.68 mins</title></rect><rect fill="#ffc001" height="4" rx="1" ry="1" width="4" x="226.00000000000014" y="25.1"><title>2024-10-08 48.27 mins</title></rect><rect fill="#ffec47" height="4" rx="1" ry="1" width="4" x="226.00000000000014" y="30.5"><title>2024-10-09 17.27 mins</title></rect><rect fill="#ffc101" height="4" rx="1" ry="1" width="4" x="226.00000000000014" y="35.9"><title>2024-10-10 38.8 mins</title></rect><rect fill="#ffec47" height="4" rx="1" ry="1" width="4" x="226.00000000000014" y="41.300000000000004"><title>2024-10-11 18.05 mins</title></rect><rect fill="#ebedf0" height="4" rx="1" ry="1" width="4" x="226.00000000000014" y="46.699999999999996"><title>2024-10-12</title></rect><rect fill="#ffee4a" height="4" rx="1" ry="1" width="4" x="226.00000000000014" y="52.1"><title>2024-10-13 2.33 mins</title></rect><rect fill="#ffee49" height="4" rx="1" ry="1" width="4" x="231.40000000000015" y="19.7"><title>2024-10-14 3.65 mins</title></rect><rect fill="#ffee4a" height="4" rx="1" ry="1" width="4" x="231.40000000000015" y="25.1"><title>2024-10-15 0.03 mins</title></rect><rect fill="#ffee4a" height="4" rx="1" ry="1" width="4" x="231.40000000000015" y="30.5"><title>2024-10-16 0.4 mins</title></rect><rect fill="#ebedf0" height="4" rx="1" ry="1" width="4" x="231.40000000000015" y="35.9"><title>2024-10-17</title></rect><rect fill="#ffee4a" height="4" rx="1" ry="1" width="4" x="231.40000000000015" y="41.300000000000004"><title>2024-10-18 2.5 mins</title></rect><rect fill="#ebedf0" height="4" rx="1" ry="1" width="4" x="231.40000000000015" y="46.699999999999996"><title>2024-10-19</title></rect><rect fill="#ebedf0" height="4" rx="1" ry="1" width="4" x="231.40000000000015" y="52.1"><title>2024-10-20</title></rect><rect fill="#ffc001" height="4" rx="1" ry="1" width="4" x="236.80000000000015" y="19.7"><title>2024-10-21 46.97 mins</title></rect><rect fill="#ffc101" height="4" rx="1" ry="1" width="4" x="236.80000000000015" y="25.1"><title>2024-10-22 37.07 mins</title></rect><rect fill="#ffee4a" height="4" rx="1" ry="1" width="4" x="236.80000000000015" y="30.5"><title>2024-10-23 1.17 mins</title></rect><rect fill="#ffee4a" height="4" rx="1" ry="1" width="4" x="236.80000000000015" y="35.9"><title>2024-10-24 0.4 mins</title></rect><rect fill="#ffee4a" height="4" rx="1" ry="1" width="4" x="236.80000000000015" y="41.300000000000004"><title>2024-10-25 1.0 mins</title></rect><rect fill="#ebedf0" height="4" rx="1" ry="1" width="4" x="236.80000000000015" y="46.699999999999996"><title>2024-10-26</title></rect><rect fill="#ebedf0" height="4" rx="1" ry="1" width="4" x="236.80000000000015" y="52.1"><title>2024-10-27</title></rect><rect fill="#ebedf0" height="4" rx="1" ry="1" width="4" x="242.20000000000016" y="19.7"><title>2024-10-28</title></rect><rect fill="#ffeb47" height="4" rx="1" ry="1" width="4" x="242.20000000000016" y="25.1"><title>2024-10-29 19.98 mins</title></rect><rect fill="#ffec48" height="4" rx="1" ry="1" width="4" x="242.20000000000016" y="30.5"><title>2024-10-30 11.5 mins</title></rect><rect fill="#ffed49" height="4" rx="1" ry="1" width="4" x="242.20000000000016" y="35.9"><title>2024-10-31 8.67 mins</title></rect><rect fill="#ffee4a" height="4" rx="1" ry="1" width="4" x="242.20000000000016" y="41.300000000000004"><title>2024-11-01 0.53 mins</title></rect><rect fill="#ebedf0" height="4" rx="1" ry="1" width="4" x="242.20000000000016" y="46.699999999999996"><title>2024-11-02</title></rect><rect fill="#ebedf0" height="4" rx="1" ry="1" width="4" x="242.20000000000016" y="52.1"><title>2024-11-03</title></rect><text fill="#FE9600" style="font-size:2.5px; font-family:Arial" x="247.60000000000016" y="18.3">Nov</text><rect fill="#ffed49" height="4" rx="1" ry="1" width="4" x="247.60000000000016" y="19.7"><title>2024-11-04 4.98 mins</title></rect><rect fill="#ffc101" height="4" rx="1" ry="1" width="4" x="247.60000000000016" y="25.1"><title>2024-11-05 45.92 mins</title></rect><rect fill="#ffee4a" height="4" rx="1" ry="1" width="4" x="247.60000000000016" y="30.5"><title>2024-11-06 2.5 mins</title></rect><rect fill="#ffed48" height="4" rx="1" ry="1" width="4" x="247.60000000000016" y="35.9"><title>2024-11-07 10.5 mins</title></rect><rect fill="#ffee4a" height="4" rx="1" ry="1" width="4" x="247.60000000000016" y="41.300000000000004"><title>2024-11-08 1.72 mins</title></rect><rect fill="#ebedf0" height="4" rx="1" ry="1" width="4" x="247.60000000000016" y="46.699999999999996"><title>2024-11-09</title></rect><rect fill="#ffee4a" height="4" rx="1" ry="1" width="4" x="247.60000000000016" y="52.1"><title>2024-11-10 2.5 mins</title></rect><rect fill="#ffed49" height="4" rx="1" ry="1" width="4" x="253.00000000000017" y="19.7"><title>2024-11-11 9.27 mins</title></rect><rect fill="#ffc201" height="4" rx="1" ry="1" width="4" x="253.00000000000017" y="25.1"><title>2024-11-12 28.3 mins</title></rect><rect fill="#ffee49" height="4" rx="1" ry="1" width="4" x="253.00000000000017" y="30.5"><title>2024-11-13 3.43 mins</title></rect><rect fill="#ffee4a" height="4" rx="1" ry="1" width="4" x="253.00000000000017" y="35.9"><title>2024-11-14 1.15 mins</title></rect><rect fill="#ffee4a" height="4" rx="1" ry="1" width="4" x="253.00000000000017" y="41.300000000000004"><title>2024-11-15 0.7 mins</title></rect><rect fill="#ffed49" height="4" rx="1" ry="1" width="4" x="253.00000000000017" y="46.699999999999996"><title>2024-11-16 4.53 mins</title></rect><rect fill="#ffee4a" height="4" rx="1" ry="1" width="4" x="253.00000000000017" y="52.1"><title>2024-11-17 0.7 mins</title></rect><rect fill="#ffc101" height="4" rx="1" ry="1" width="4" x="258.40000000000015" y="19.7"><title>2024-11-18 40.98 mins</title></rect><rect fill="#ffc101" height="4" rx="1" ry="1" width="4" x="258.40000000000015" y="25.1"><title>2024-11-19 42.7 mins</title></rect><rect fill="#FE9600" height="4" rx="1" ry="1" width="4" x="258.40000000000015" y="30.5"><title>2024-11-20 66.22 mins</title></rect><rect fill="#ffc101" height="4" rx="1" ry="1" width="4" x="258.40000000000015" y="35.9"><title>2024-11-21 41.73 mins</title></rect><rect fill="#ffee4a" height="4" rx="1" ry="1" width="4" x="258.40000000000015" y="41.300000000000004"><title>2024-11-22 2.0 mins</title></rect><rect fill="#ffc101" height="4" rx="1" ry="1" width="4" x="258.40000000000015" y="46.699999999999996"><title>2024-11-23 40.3 mins</title></rect><rect fill="#ffed49" height="4" rx="1" ry="1" width="4" x="258.40000000000015" y="52.1"><title>2024-11-24 5.93 mins</title></rect><rect fill="#FE9600" height="4" rx="1" ry="1" width="4" x="263.8000000000001" y="19.7"><title>2024-11-25 66.65 mins</title></rect><rect fill="#FE9600" height="4" rx="1" ry="1" width="4" x="263.8000000000001" y="25.1"><title>2024-11-26 74.83 mins</title></rect><rect fill="#ffc201" height="4" rx="1" ry="1" width="4" x="263.8000000000001" y="30.5"><title>2024-11-27 28.37 mins</title></rect><rect fill="#ffed49" height="4" rx="1" ry="1" width="4" x="263.8000000000001" y="35.9"><title>2024-11-28 8.5 mins</title></rect><rect fill="#ffbf01" height="4" rx="1" ry="1" width="4" x="263.8000000000001" y="41.300000000000004"><title>2024-11-29 63.62 mins</title></rect><rect fill="#ffec48" height="4" rx="1" ry="1" width="4" x="263.8000000000001" y="46.699999999999996"><title>2024-11-30 15.0 mins</title></rect><rect fill="#ffed49" height="4" rx="1" ry="1" width="4" x="263.8000000000001" y="52.1"><title>2024-12-01 3.93 mins</title></rect><text fill="#FE9600" style="font-size:2.5px; font-family:Arial" x="269.2000000000001" y="18.3">Dec</text><rect fill="#ffc201" height="4" rx="1" ry="1" width="4" x="269.2000000000001" y="19.7"><title>2024-12-02 31.95 mins</title></rect><rect fill="#ebedf0" height="4" rx="1" ry="1" width="4" x="269.2000000000001" y="25.1"><title>2024-12-03</title></rect><rect fill="#ffc001" height="4" rx="1" ry="1" width="4" x="269.2000000000001" y="30.5"><title>2024-12-04 54.75 mins</title></rect><rect fill="#ffc201" height="4" rx="1" ry="1" width="4" x="269.2000000000001" y="35.9"><title>2024-12-05 26.18 mins</title></rect><rect fill="#ffec48" height="4" rx="1" ry="1" width="4" x="269.2000000000001" y="41.300000000000004"><title>2024-12-06 12.28 mins</title></rect><rect fill="#ffed49" height="4" rx="1" ry="1" width="4" x="269.2000000000001" y="46.699999999999996"><title>2024-12-07 4.33 mins</title></rect><rect fill="#ffee4a" height="4" rx="1" ry="1" width="4" x="269.2000000000001" y="52.1"><title>2024-12-08 0.98 mins</title></rect><rect fill="#ffee4a" height="4" rx="1" ry="1" width="4" x="274.6000000000001" y="19.7"><title>2024-12-09 2.0 mins</title></rect><rect fill="#FE9600" height="4" rx="1" ry="1" width="4" x="274.6000000000001" y="25.1"><title>2024-12-10 139.98 mins</title></rect><rect fill="#ffc201" height="4" rx="1" ry="1" width="4" x="274.6000000000001" y="30.5"><title>2024-12-11 27.8 mins</title></rect><rect fill="#ffee4a" height="4" rx="1" ry="1" width="4" x="274.6000000000001" y="35.9"><title>2024-12-12 1.0 mins</title></rect><rect fill="#ebedf0" height="4" rx="1" ry="1" width="4" x="274.6000000000001" y="41.300000000000004"><title>2024-12-13</title></rect><rect fill="#ebedf0" height="4" rx="1" ry="1" width="4" x="274.6000000000001" y="46.699999999999996"><title>2024-12-14</title></rect><rect fill="#ebedf0" height="4" rx="1" ry="1" width="4" x="274.6000000000001" y="52.1"><title>2024-12-15</title></rect><rect fill="#ffbf01" height="4" rx="1" ry="1" width="4" x="280.00000000000006" y="19.7"><title>2024-12-16 59.27 mins</title></rect><rect fill="#ffc201" height="4" rx="1" ry="1" width="4" x="280.00000000000006" y="25.1"><title>2024-12-17 33.67 mins</title></rect><rect fill="#ffed49" height="4" rx="1" ry="1" width="4" x="280.00000000000006" y="30.5"><title>2024-12-18 9.03 mins</title></rect><rect fill="#ffec47" height="4" rx="1" ry="1" width="4" x="280.00000000000006" y="35.9"><title>2024-12-19 18.35 mins</title></rect><rect fill="#ffbf01" height="4" rx="1" ry="1" width="4" x="280.00000000000006" y="41.300000000000004"><title>2024-12-20 60.15 mins</title></rect><rect fill="#ffec48" height="4" rx="1" ry="1" width="4" x="280.00000000000006" y="46.699999999999996"><title>2024-12-21 15.2 mins</title></rect><rect fill="#ffee49" height="4" rx="1" ry="1" width="4" x="280.00000000000006" y="52.1"><title>2024-12-22 3.57 mins</title></rect><rect fill="#ffee4a" height="4" rx="1" ry="1" width="4" x="285.40000000000003" y="19.7"><title>2024-12-23 1.53 mins</title></rect><rect fill="#ffed49" height="4" rx="1" ry="1" width="4" x="285.40000000000003" y="25.1"><title>2024-12-24 5.5 mins</title></rect><rect fill="#ffee4a" height="4" rx="1" ry="1" width="4" x="285.40000000000003" y="30.5"><title>2024-12-25 3.2 mins</title></rect><rect fill="#ffc201" height="4" rx="1" ry="1" width="4" x="285.40000000000003" y="35.9"><title>2024-12-26 31.0 mins</title></rect><rect fill="#ffee49" height="4" rx="1" ry="1" width="4" x="285.40000000000003" y="41.300000000000004"><title>2024-12-27 3.45 mins</title></rect><rect fill="#ffed49" height="4" rx="1" ry="1" width="4" x="285.40000000000003" y="46.699999999999996"><title>2024-12-28 3.97 mins</title></rect><rect fill="#ffec48" height="4" rx="1" ry="1" width="4" x="285.40000000000003" y="52.1"><title>2024-12-29 12.65 mins</title></rect><rect fill="#ffed49" height="4" rx="1" ry="1" width="4" x="290.8" y="19.7"><title>2024-12-30 5.82 mins</title></rect><rect fill="#ebedf0" height="4" rx="1" ry="1" width="4" x="290.8" y="25.1"><title>2024-12-31</title></rect></svg>